<svg xmlns="http://www.w3.org/2000/svg" version="1.1" xmlns:xlink="http://www.w3.org/1999/xlink" xmlns:svgjs="http://svgjs.com/svgjs" width="1440" height="560" preserveAspectRatio="none" viewBox="0 0 1440 560"><g mask="url(&quot;#SvgjsMask1013&quot;)" fill="none"><rect width="1440" height="560" x="0" y="0" fill="url(#SvgjsRadialGradient1014)"></rect><path d="M281.16 285.73L281.16 289.46L299.43 289.46L299.43 285.73zM292.83 287.6 a6.6 6.6 0 1 0 13.2 0 a6.6 6.6 0 1 0 -13.2 0zM276.46 313.11L275.03 316.56L306.76 329.7L308.19 326.25zM300.87 327.97 a6.6 6.6 0 1 0 13.2 0 a6.6 6.6 0 1 0 -13.2 0zM261.64 336.6L259 339.24L270.7 350.94L273.34 348.31zM265.42 349.63 a6.6 6.6 0 1 0 13.2 0 a6.6 6.6 0 1 0 -13.2 0zM238.95 352.64L235.51 354.06L246.72 381.12L250.16 379.7zM241.84 380.41 a6.6 6.6 0 1 0 13.2 0 a6.6 6.6 0 1 0 -13.2 0zM211.86 358.77L208.13 358.77L208.13 390.16L211.86 390.16zM203.39 390.16 a6.6 6.6 0 1 0 13.2 0 a6.6 6.6 0 1 0 -13.2 0zM184.48 354.06L181.04 352.64L168.89 381.95L172.34 383.38zM164.02 382.66 a6.6 6.6 0 1 0 13.2 0 a6.6 6.6 0 1 0 -13.2 0zM160.99 339.24L158.35 336.6L149.66 345.29L152.3 347.93zM144.38 346.61 a6.6 6.6 0 1 0 13.2 0 a6.6 6.6 0 1 0 -13.2 0zM144.96 316.56L143.53 313.11L132.54 317.66L133.97 321.11zM126.66 319.38 a6.6 6.6 0 1 0 13.2 0 a6.6 6.6 0 1 0 -13.2 0zM138.82 289.46L138.82 285.73L122.74 285.73L122.74 289.46zM116.14 287.6 a6.6 6.6 0 1 0 13.2 0 a6.6 6.6 0 1 0 -13.2 0zM143.53 262.08L144.96 258.64L123.17 249.62L121.74 253.06zM115.86 251.34 a6.6 6.6 0 1 0 13.2 0 a6.6 6.6 0 1 0 -13.2 0zM158.35 238.59L160.99 235.96L140.37 215.34L137.73 217.97zM132.45 216.65 a6.6 6.6 0 1 0 13.2 0 a6.6 6.6 0 1 0 -13.2 0zM181.04 222.56L184.48 221.13L179.31 208.66L175.87 210.09zM170.99 209.37 a6.6 6.6 0 1 0 13.2 0 a6.6 6.6 0 1 0 -13.2 0zM208.13 216.43L211.86 216.43L211.86 196.89L208.13 196.89zM203.39 196.89 a6.6 6.6 0 1 0 13.2 0 a6.6 6.6 0 1 0 -13.2 0zM235.51 221.13L238.95 222.56L248.99 198.32L245.55 196.89zM240.67 197.6 a6.6 6.6 0 1 0 13.2 0 a6.6 6.6 0 1 0 -13.2 0zM259 235.96L261.64 238.59L281.68 218.55L279.04 215.92zM273.76 217.23 a6.6 6.6 0 1 0 13.2 0 a6.6 6.6 0 1 0 -13.2 0zM275.03 258.64L276.46 262.08L286.77 257.81L285.34 254.37zM279.46 256.09 a6.6 6.6 0 1 0 13.2 0 a6.6 6.6 0 1 0 -13.2 0zM138.8 287.6 a71.19 71.19 0 1 0 142.38 0 a71.19 71.19 0 1 0 -142.38 0z" fill="#488fdb"></path><path d="M196.86 217.63 A70.1936 70.1936 0 0 1 277.21 311.07M277.21 311.07 A142.3872 142.3872 0 0 0 196.86 217.63" fill="#2672c3" fill-rule="nonzero"></path><path d="M219.14 354.54 a2.85 2.85 0 1 0 5.7 0 a2.85 2.85 0 1 0 -5.7 0zM198.66 221.71 a4.98 4.98 0 1 0 9.96 0 a4.98 4.98 0 1 0 -9.96 0zM200.61 316.63 a14.24 14.24 0 1 0 28.48 0 a14.24 14.24 0 1 0 -28.48 0zM139.98 277.6 a6.41 6.41 0 1 0 12.82 0 a6.41 6.41 0 1 0 -12.82 0zM239.54 299.41 a8.54 8.54 0 1 0 17.08 0 a8.54 8.54 0 1 0 -17.08 0zM263.09 249.07 a2.85 2.85 0 1 0 5.7 0 a2.85 2.85 0 1 0 -5.7 0zM146.8 318.61 a4.98 4.98 0 1 0 9.96 0 a4.98 4.98 0 1 0 -9.96 0zM171.58 278.27 a14.24 14.24 0 1 0 28.48 0 a14.24 14.24 0 1 0 -28.48 0zM159.73 251.75 a4.98 4.98 0 1 0 9.96 0 a4.98 4.98 0 1 0 -9.96 0zM208.4 257.33 a9.97 9.97 0 1 0 19.94 0 a9.97 9.97 0 1 0 -19.94 0z" fill="#2672c3" fill-rule="nonzero"></path><path d="M1278.51 405.98L1278.51 409.71L1292.2 409.71L1292.2 405.98zM1285.6 407.84 a6.6 6.6 0 1 0 13.2 0 a6.6 6.6 0 1 0 -13.2 0zM1273.8 433.36L1272.38 436.8L1293.99 445.75L1295.41 442.31zM1288.1 444.03 a6.6 6.6 0 1 0 13.2 0 a6.6 6.6 0 1 0 -13.2 0zM1258.98 456.85L1256.34 459.49L1267.59 470.73L1270.22 468.09zM1262.3 469.41 a6.6 6.6 0 1 0 13.2 0 a6.6 6.6 0 1 0 -13.2 0zM1236.29 472.88L1232.85 474.31L1243.88 500.93L1247.32 499.5zM1239 500.21 a6.6 6.6 0 1 0 13.2 0 a6.6 6.6 0 1 0 -13.2 0zM1209.2 479.01L1205.47 479.01L1205.47 500.49L1209.2 500.49zM1200.74 500.49 a6.6 6.6 0 1 0 13.2 0 a6.6 6.6 0 1 0 -13.2 0zM1181.82 474.31L1178.38 472.88L1173.08 485.68L1176.52 487.1zM1168.2 486.39 a6.6 6.6 0 1 0 13.2 0 a6.6 6.6 0 1 0 -13.2 0zM1158.33 459.49L1155.7 456.85L1138.39 474.15L1141.03 476.79zM1133.11 475.47 a6.6 6.6 0 1 0 13.2 0 a6.6 6.6 0 1 0 -13.2 0zM1142.3 436.8L1140.87 433.36L1117.06 443.22L1118.49 446.66zM1111.18 444.94 a6.6 6.6 0 1 0 13.2 0 a6.6 6.6 0 1 0 -13.2 0zM1136.17 409.71L1136.17 405.98L1102.2 405.98L1102.2 409.71zM1095.6 407.84 a6.6 6.6 0 1 0 13.2 0 a6.6 6.6 0 1 0 -13.2 0zM1140.87 382.33L1142.3 378.89L1111.64 366.18L1110.21 369.63zM1104.32 367.91 a6.6 6.6 0 1 0 13.2 0 a6.6 6.6 0 1 0 -13.2 0zM1155.7 358.84L1158.33 356.2L1148.64 346.51L1146.01 349.15zM1140.73 347.83 a6.6 6.6 0 1 0 13.2 0 a6.6 6.6 0 1 0 -13.2 0zM1178.38 342.8L1181.82 341.38L1172.05 317.79L1168.61 319.22zM1163.73 318.5 a6.6 6.6 0 1 0 13.2 0 a6.6 6.6 0 1 0 -13.2 0zM1205.47 336.67L1209.2 336.67L1209.2 314.85L1205.47 314.85zM1200.74 314.85 a6.6 6.6 0 1 0 13.2 0 a6.6 6.6 0 1 0 -13.2 0zM1232.85 341.38L1236.29 342.8L1245.24 321.2L1241.8 319.78zM1236.92 320.49 a6.6 6.6 0 1 0 13.2 0 a6.6 6.6 0 1 0 -13.2 0zM1256.34 356.2L1258.98 358.84L1283.48 334.34L1280.84 331.7zM1275.56 333.02 a6.6 6.6 0 1 0 13.2 0 a6.6 6.6 0 1 0 -13.2 0zM1272.38 378.89L1273.8 382.33L1294.76 373.65L1293.33 370.21zM1287.44 371.93 a6.6 6.6 0 1 0 13.2 0 a6.6 6.6 0 1 0 -13.2 0zM1136.15 407.84 a71.19 71.19 0 1 0 142.38 0 a71.19 71.19 0 1 0 -142.38 0z" fill="#488fdb"></path><path d="M1145.3 372.92 A70.1936 70.1936 0 0 1 1268.53 371.45M1268.53 371.45 A142.3872 142.3872 0 0 0 1145.3 372.92" fill="#2672c3" fill-rule="nonzero"></path><path d="M1144.74 417.24 a14.24 14.24 0 1 0 28.48 0 a14.24 14.24 0 1 0 -28.48 0zM1238.76 377.63 a14.24 14.24 0 1 0 28.48 0 a14.24 14.24 0 1 0 -28.48 0zM1186.9 440.76 a14.24 14.24 0 1 0 28.48 0 a14.24 14.24 0 1 0 -28.48 0zM1247.18 409.14 a2.85 2.85 0 1 0 5.7 0 a2.85 2.85 0 1 0 -5.7 0zM1161.18 386.05 a2.85 2.85 0 1 0 5.7 0 a2.85 2.85 0 1 0 -5.7 0zM1204.12 475.71 a2.85 2.85 0 1 0 5.7 0 a2.85 2.85 0 1 0 -5.7 0zM1160.88 356.19 a3.56 3.56 0 1 0 7.12 0 a3.56 3.56 0 1 0 -7.12 0zM1225.29 469.58 a4.98 4.98 0 1 0 9.96 0 a4.98 4.98 0 1 0 -9.96 0zM1249.23 430.61 a4.27 4.27 0 1 0 8.54 0 a4.27 4.27 0 1 0 -8.54 0zM1222.65 416.65 a5.7 5.7 0 1 0 11.4 0 a5.7 5.7 0 1 0 -11.4 0z" fill="#2672c3" fill-rule="nonzero"></path><path d="M992.42 210.54L992.42 214.26L1004.07 214.26L1004.07 210.54zM997.47 212.4 a6.6 6.6 0 1 0 13.2 0 a6.6 6.6 0 1 0 -13.2 0zM987.71 237.91L986.29 241.36L1011.16 251.66L1012.58 248.22zM1005.27 249.94 a6.6 6.6 0 1 0 13.2 0 a6.6 6.6 0 1 0 -13.2 0zM972.89 261.41L970.25 264.04L993.6 287.39L996.24 284.76zM988.32 286.07 a6.6 6.6 0 1 0 13.2 0 a6.6 6.6 0 1 0 -13.2 0zM950.2 277.44L946.76 278.86L954.1 296.58L957.54 295.16zM949.22 295.87 a6.6 6.6 0 1 0 13.2 0 a6.6 6.6 0 1 0 -13.2 0zM923.11 283.57L919.38 283.57L919.38 308.73L923.11 308.73zM914.65 308.73 a6.6 6.6 0 1 0 13.2 0 a6.6 6.6 0 1 0 -13.2 0zM895.73 278.86L892.29 277.44L880.93 304.87L884.37 306.29zM876.05 305.58 a6.6 6.6 0 1 0 13.2 0 a6.6 6.6 0 1 0 -13.2 0zM872.24 264.04L869.61 261.41L859.46 271.55L862.09 274.19zM854.18 272.87 a6.6 6.6 0 1 0 13.2 0 a6.6 6.6 0 1 0 -13.2 0zM856.21 241.36L854.78 237.91L830.58 247.94L832 251.38zM824.69 249.66 a6.6 6.6 0 1 0 13.2 0 a6.6 6.6 0 1 0 -13.2 0zM850.08 214.26L850.08 210.54L829.61 210.54L829.61 214.26zM823.01 212.4 a6.6 6.6 0 1 0 13.2 0 a6.6 6.6 0 1 0 -13.2 0zM854.78 186.89L856.21 183.44L828.24 171.86L826.82 175.3zM820.93 173.58 a6.6 6.6 0 1 0 13.2 0 a6.6 6.6 0 1 0 -13.2 0zM869.61 163.39L872.24 160.76L863.65 152.17L861.01 154.8zM855.73 153.48 a6.6 6.6 0 1 0 13.2 0 a6.6 6.6 0 1 0 -13.2 0zM892.29 147.36L895.73 145.94L889.09 129.91L885.65 131.33zM880.77 130.62 a6.6 6.6 0 1 0 13.2 0 a6.6 6.6 0 1 0 -13.2 0zM919.38 141.23L923.11 141.23L923.11 107.39L919.38 107.39zM914.65 107.39 a6.6 6.6 0 1 0 13.2 0 a6.6 6.6 0 1 0 -13.2 0zM946.76 145.94L950.2 147.36L959.64 124.58L956.2 123.15zM951.32 123.87 a6.6 6.6 0 1 0 13.2 0 a6.6 6.6 0 1 0 -13.2 0zM970.25 160.76L972.89 163.39L982.19 154.1L979.55 151.46zM974.27 152.78 a6.6 6.6 0 1 0 13.2 0 a6.6 6.6 0 1 0 -13.2 0zM986.29 183.44L987.71 186.89L1006.91 178.93L1005.48 175.49zM999.6 177.21 a6.6 6.6 0 1 0 13.2 0 a6.6 6.6 0 1 0 -13.2 0zM850.06 212.4 a71.19 71.19 0 1 0 142.38 0 a71.19 71.19 0 1 0 -142.38 0z" fill="#488fdb"></path><path d="M850.76 222.43 A70.1936 70.1936 0 0 1 947.66 146.29M947.66 146.29 A142.3872 142.3872 0 0 0 850.76 222.43" fill="#2672c3" fill-rule="nonzero"></path><path d="M897.61 250.5 a14.24 14.24 0 1 0 28.48 0 a14.24 14.24 0 1 0 -28.48 0zM939.78 257.65 a5.7 5.7 0 1 0 11.4 0 a5.7 5.7 0 1 0 -11.4 0zM871.18 206.95 a14.24 14.24 0 1 0 28.48 0 a14.24 14.24 0 1 0 -28.48 0zM952.1 176.19 a13.53 13.53 0 1 0 27.06 0 a13.53 13.53 0 1 0 -27.06 0zM978.03 205.09 a5.7 5.7 0 1 0 11.4 0 a5.7 5.7 0 1 0 -11.4 0zM893.17 169.66 a14.24 14.24 0 1 0 28.48 0 a14.24 14.24 0 1 0 -28.48 0zM977.77 229.07 a3.56 3.56 0 1 0 7.12 0 a3.56 3.56 0 1 0 -7.12 0zM949.22 234.67 a3.56 3.56 0 1 0 7.12 0 a3.56 3.56 0 1 0 -7.12 0zM855.75 228.13 a4.27 4.27 0 1 0 8.54 0 a4.27 4.27 0 1 0 -8.54 0zM872.77 260.16 a5.7 5.7 0 1 0 11.4 0 a5.7 5.7 0 1 0 -11.4 0z" fill="#2672c3" fill-rule="nonzero"></path><path d="M658.8 414.83L658.8 418.56L681.63 418.56L681.63 414.83zM675.03 416.7 a6.6 6.6 0 1 0 13.2 0 a6.6 6.6 0 1 0 -13.2 0zM654.1 442.21L652.67 445.65L682.12 457.85L683.54 454.4zM676.23 456.13 a6.6 6.6 0 1 0 13.2 0 a6.6 6.6 0 1 0 -13.2 0zM639.27 465.7L636.64 468.34L654.54 486.24L657.18 483.61zM649.26 484.92 a6.6 6.6 0 1 0 13.2 0 a6.6 6.6 0 1 0 -13.2 0zM616.59 481.73L613.15 483.16L623.94 509.22L627.39 507.8zM619.06 508.51 a6.6 6.6 0 1 0 13.2 0 a6.6 6.6 0 1 0 -13.2 0zM589.5 487.86L585.77 487.86L585.77 506.37L589.5 506.37zM581.03 506.37 a6.6 6.6 0 1 0 13.2 0 a6.6 6.6 0 1 0 -13.2 0zM562.12 483.16L558.68 481.73L547.94 507.66L551.38 509.08zM543.06 508.37 a6.6 6.6 0 1 0 13.2 0 a6.6 6.6 0 1 0 -13.2 0zM538.63 468.34L535.99 465.7L516.59 485.1L519.23 487.73zM511.31 486.42 a6.6 6.6 0 1 0 13.2 0 a6.6 6.6 0 1 0 -13.2 0zM522.59 445.65L521.17 442.21L498.99 451.4L500.41 454.84zM493.1 453.12 a6.6 6.6 0 1 0 13.2 0 a6.6 6.6 0 1 0 -13.2 0zM516.46 418.56L516.46 414.83L506.93 414.83L506.93 418.56zM500.33 416.7 a6.6 6.6 0 1 0 13.2 0 a6.6 6.6 0 1 0 -13.2 0zM521.17 391.18L522.59 387.74L497.78 377.46L496.35 380.9zM490.47 379.18 a6.6 6.6 0 1 0 13.2 0 a6.6 6.6 0 1 0 -13.2 0zM535.99 367.69L538.63 365.05L530.23 356.65L527.59 359.29zM522.31 357.97 a6.6 6.6 0 1 0 13.2 0 a6.6 6.6 0 1 0 -13.2 0zM558.68 351.66L562.12 350.23L550.19 321.44L546.75 322.87zM541.87 322.16 a6.6 6.6 0 1 0 13.2 0 a6.6 6.6 0 1 0 -13.2 0zM585.77 345.53L589.5 345.53L589.5 313.89L585.77 313.89zM581.03 313.89 a6.6 6.6 0 1 0 13.2 0 a6.6 6.6 0 1 0 -13.2 0zM613.15 350.23L616.59 351.66L628.7 322.43L625.25 321zM620.38 321.71 a6.6 6.6 0 1 0 13.2 0 a6.6 6.6 0 1 0 -13.2 0zM636.64 365.05L639.27 367.69L655.05 351.91L652.41 349.28zM647.13 350.6 a6.6 6.6 0 1 0 13.2 0 a6.6 6.6 0 1 0 -13.2 0zM652.67 387.74L654.1 391.18L677.07 381.66L675.65 378.22zM669.76 379.94 a6.6 6.6 0 1 0 13.2 0 a6.6 6.6 0 1 0 -13.2 0zM516.44 416.7 a71.19 71.19 0 1 0 142.38 0 a71.19 71.19 0 1 0 -142.38 0z" fill="#488fdb"></path><path d="M616.24 481.89 A70.1936 70.1936 0 0 1 516.85 409.02M516.85 409.02 A142.3872 142.3872 0 0 0 616.24 481.89" fill="#2672c3" fill-rule="nonzero"></path><path d="M539.73 464.2 a9.26 9.26 0 1 0 18.52 0 a9.26 9.26 0 1 0 -18.52 0zM631.94 441.81 a10.68 10.68 0 1 0 21.36 0 a10.68 10.68 0 1 0 -21.36 0zM633.23 386.27 a8.54 8.54 0 1 0 17.08 0 a8.54 8.54 0 1 0 -17.08 0zM573.25 482.81 a3.56 3.56 0 1 0 7.12 0 a3.56 3.56 0 1 0 -7.12 0zM577.76 359.02 a12.81 12.81 0 1 0 25.62 0 a12.81 12.81 0 1 0 -25.62 0zM548.36 399.9 a14.24 14.24 0 1 0 28.48 0 a14.24 14.24 0 1 0 -28.48 0zM603.77 417.86 a11.39 11.39 0 1 0 22.78 0 a11.39 11.39 0 1 0 -22.78 0zM570.97 454.86 a3.56 3.56 0 1 0 7.12 0 a3.56 3.56 0 1 0 -7.12 0zM539.77 367.01 a6.41 6.41 0 1 0 12.82 0 a6.41 6.41 0 1 0 -12.82 0zM522.14 390.53 a5.7 5.7 0 1 0 11.4 0 a5.7 5.7 0 1 0 -11.4 0z" fill="#2672c3" fill-rule="nonzero"></path><path d="M672.86 110.42L672.86 113.68L694.98 113.68L694.98 110.42zM689.2 112.05 a5.78 5.78 0 1 0 11.56 0 a5.78 5.78 0 1 0 -11.56 0zM668.74 134.38L667.49 137.39L678.17 141.81L679.42 138.8zM673.02 140.31 a5.78 5.78 0 1 0 11.56 0 a5.78 5.78 0 1 0 -11.56 0zM655.77 154.93L653.46 157.24L669.29 173.06L671.6 170.76zM664.66 171.91 a5.78 5.78 0 1 0 11.56 0 a5.78 5.78 0 1 0 -11.56 0zM635.92 168.96L632.91 170.21L638.13 182.81L641.14 181.56zM633.85 182.19 a5.78 5.78 0 1 0 11.56 0 a5.78 5.78 0 1 0 -11.56 0zM612.21 174.32L608.95 174.32L608.95 189.17L612.21 189.17zM604.8 189.17 a5.78 5.78 0 1 0 11.56 0 a5.78 5.78 0 1 0 -11.56 0zM588.26 170.21L585.25 168.96L575.85 191.64L578.86 192.89zM571.58 192.26 a5.78 5.78 0 1 0 11.56 0 a5.78 5.78 0 1 0 -11.56 0zM567.7 157.24L565.4 154.93L554.22 166.11L556.52 168.42zM549.59 167.26 a5.78 5.78 0 1 0 11.56 0 a5.78 5.78 0 1 0 -11.56 0zM553.68 137.39L552.43 134.38L529.83 143.74L531.08 146.75zM524.67 145.24 a5.78 5.78 0 1 0 11.56 0 a5.78 5.78 0 1 0 -11.56 0zM548.31 113.68L548.31 110.42L529.52 110.42L529.52 113.68zM523.74 112.05 a5.78 5.78 0 1 0 11.56 0 a5.78 5.78 0 1 0 -11.56 0zM552.43 89.73L553.68 86.71L538.33 80.36L537.08 83.37zM531.93 81.86 a5.78 5.78 0 1 0 11.56 0 a5.78 5.78 0 1 0 -11.56 0zM565.4 69.17L567.7 66.86L549.28 48.44L546.98 50.75zM542.35 49.6 a5.78 5.78 0 1 0 11.56 0 a5.78 5.78 0 1 0 -11.56 0zM585.25 55.14L588.26 53.89L582.68 40.41L579.66 41.66zM575.39 41.04 a5.78 5.78 0 1 0 11.56 0 a5.78 5.78 0 1 0 -11.56 0zM608.95 49.78L612.21 49.78L612.21 37.16L608.95 37.16zM604.8 37.16 a5.78 5.78 0 1 0 11.56 0 a5.78 5.78 0 1 0 -11.56 0zM632.91 53.89L635.92 55.14L643.17 37.64L640.16 36.4zM635.88 37.02 a5.78 5.78 0 1 0 11.56 0 a5.78 5.78 0 1 0 -11.56 0zM653.46 66.86L655.77 69.17L674.77 50.17L672.46 47.86zM667.84 49.02 a5.78 5.78 0 1 0 11.56 0 a5.78 5.78 0 1 0 -11.56 0zM667.49 86.71L668.74 89.73L685.51 82.78L684.26 79.77zM679.11 81.27 a5.78 5.78 0 1 0 11.56 0 a5.78 5.78 0 1 0 -11.56 0zM548.29 112.05 a62.29 62.29 0 1 0 124.58 0 a62.29 62.29 0 1 0 -124.58 0z" fill="#488fdb"></path><path d="M588.1 53.96 A61.294399999999996 61.294399999999996 0 0 1 672.16 121.49M672.16 121.49 A124.58879999999999 124.58879999999999 0 0 0 588.1 53.96" fill="#2672c3" fill-rule="nonzero"></path><path d="M616.64 98.55 a12.46 12.46 0 1 0 24.92 0 a12.46 12.46 0 1 0 -24.92 0zM621.11 69.67 a3.74 3.74 0 1 0 7.48 0 a3.74 3.74 0 1 0 -7.48 0zM612.23 153.36 a12.46 12.46 0 1 0 24.92 0 a12.46 12.46 0 1 0 -24.92 0zM593.53 73.53 a7.48 7.48 0 1 0 14.96 0 a7.48 7.48 0 1 0 -14.96 0zM549.12 121.36 a8.1 8.1 0 1 0 16.2 0 a8.1 8.1 0 1 0 -16.2 0zM560.4 144.16 a2.49 2.49 0 1 0 4.98 0 a2.49 2.49 0 1 0 -4.98 0zM601.1 171.42 a2.49 2.49 0 1 0 4.98 0 a2.49 2.49 0 1 0 -4.98 0zM567.76 68.79 a3.74 3.74 0 1 0 7.48 0 a3.74 3.74 0 1 0 -7.48 0zM646.79 139.34 a8.72 8.72 0 1 0 17.44 0 a8.72 8.72 0 1 0 -17.44 0zM575.71 109.61 a12.46 12.46 0 1 0 24.92 0 a12.46 12.46 0 1 0 -24.92 0z" fill="#2672c3" fill-rule="nonzero"></path><path d="M412.5 77.09L412.5 78.95L426.15 78.95L426.15 77.09zM422.85 78.02 a3.3 3.3 0 1 0 6.6 0 a3.3 3.3 0 1 0 -6.6 0zM410.15 90.78L409.43 92.5L414.18 94.47L414.89 92.74zM411.24 93.61 a3.3 3.3 0 1 0 6.6 0 a3.3 3.3 0 1 0 -6.6 0zM402.73 102.52L401.42 103.84L411.66 114.09L412.98 112.77zM409.02 113.43 a3.3 3.3 0 1 0 6.6 0 a3.3 3.3 0 1 0 -6.6 0zM391.39 110.54L389.67 111.25L393.93 121.53L395.65 120.81zM391.49 121.17 a3.3 3.3 0 1 0 6.6 0 a3.3 3.3 0 1 0 -6.6 0zM377.84 113.61L375.98 113.61L375.98 125.33L377.84 125.33zM373.61 125.33 a3.3 3.3 0 1 0 6.6 0 a3.3 3.3 0 1 0 -6.6 0zM364.16 111.25L362.43 110.54L356.26 125.45L357.98 126.16zM353.82 125.81 a3.3 3.3 0 1 0 6.6 0 a3.3 3.3 0 1 0 -6.6 0zM352.41 103.84L351.09 102.52L340.23 113.38L341.55 114.7zM337.59 114.04 a3.3 3.3 0 1 0 6.6 0 a3.3 3.3 0 1 0 -6.6 0zM344.39 92.5L343.68 90.78L336.92 93.58L337.63 95.3zM333.97 94.44 a3.3 3.3 0 1 0 6.6 0 a3.3 3.3 0 1 0 -6.6 0zM341.33 78.95L341.33 77.09L323.96 77.09L323.96 78.95zM320.66 78.02 a3.3 3.3 0 1 0 6.6 0 a3.3 3.3 0 1 0 -6.6 0zM343.68 65.26L344.39 63.54L338.88 61.26L338.16 62.98zM335.22 62.12 a3.3 3.3 0 1 0 6.6 0 a3.3 3.3 0 1 0 -6.6 0zM351.09 53.52L352.41 52.2L344.41 44.2L343.09 45.51zM340.45 44.85 a3.3 3.3 0 1 0 6.6 0 a3.3 3.3 0 1 0 -6.6 0zM362.43 45.5L364.16 44.79L362.19 40.03L360.46 40.74zM358.02 40.39 a3.3 3.3 0 1 0 6.6 0 a3.3 3.3 0 1 0 -6.6 0zM375.98 42.44L377.84 42.44L377.84 35.11L375.98 35.11zM373.61 35.11 a3.3 3.3 0 1 0 6.6 0 a3.3 3.3 0 1 0 -6.6 0zM389.67 44.79L391.39 45.5L393.39 40.69L391.66 39.97zM389.22 40.33 a3.3 3.3 0 1 0 6.6 0 a3.3 3.3 0 1 0 -6.6 0zM401.42 52.2L402.73 53.52L413.64 42.61L412.33 41.29zM409.69 41.95 a3.3 3.3 0 1 0 6.6 0 a3.3 3.3 0 1 0 -6.6 0zM409.43 63.54L410.15 65.26L424.27 59.41L423.56 57.69zM420.61 58.55 a3.3 3.3 0 1 0 6.6 0 a3.3 3.3 0 1 0 -6.6 0zM341.31 78.02 a35.6 35.6 0 1 0 71.2 0 a35.6 35.6 0 1 0 -71.2 0z" fill="#488fdb"></path><path d="M395.96 47.95 A34.5968 34.5968 0 0 1 393.5 109.51M393.5 109.51 A71.1936 71.1936 0 0 0 395.96 47.95" fill="#2672c3" fill-rule="nonzero"></path><path d="M372 49.72 a7.12 7.12 0 1 0 14.24 0 a7.12 7.12 0 1 0 -14.24 0zM383.28 65.48 a2.85 2.85 0 1 0 5.7 0 a2.85 2.85 0 1 0 -5.7 0zM354.71 67.36 a7.12 7.12 0 1 0 14.24 0 a7.12 7.12 0 1 0 -14.24 0zM390.69 76.32 a3.2 3.2 0 1 0 6.4 0 a3.2 3.2 0 1 0 -6.4 0zM368.6 97.79 a7.12 7.12 0 1 0 14.24 0 a7.12 7.12 0 1 0 -14.24 0zM346.54 89.09 a7.12 7.12 0 1 0 14.24 0 a7.12 7.12 0 1 0 -14.24 0zM384.94 109.49 a1.78 1.78 0 1 0 3.56 0 a1.78 1.78 0 1 0 -3.56 0zM401.17 94.84 a3.2 3.2 0 1 0 6.4 0 a3.2 3.2 0 1 0 -6.4 0zM361.61 107.31 a1.42 1.42 0 1 0 2.84 0 a1.42 1.42 0 1 0 -2.84 0zM399.5 66.44 a2.14 2.14 0 1 0 4.28 0 a2.14 2.14 0 1 0 -4.28 0z" fill="#2672c3" fill-rule="nonzero"></path><path d="M1194.74 58.71L1194.74 60.57L1200.98 60.57L1200.98 58.71zM1197.68 59.64 a3.3 3.3 0 1 0 6.6 0 a3.3 3.3 0 1 0 -6.6 0zM1192.39 72.4L1191.68 74.12L1207.48 80.66L1208.19 78.94zM1204.53 79.8 a3.3 3.3 0 1 0 6.6 0 a3.3 3.3 0 1 0 -6.6 0zM1184.98 84.14L1183.66 85.46L1194.95 96.75L1196.26 95.43zM1192.31 96.09 a3.3 3.3 0 1 0 6.6 0 a3.3 3.3 0 1 0 -6.6 0zM1173.64 92.16L1171.91 92.87L1174.89 100.05L1176.61 99.34zM1172.45 99.69 a3.3 3.3 0 1 0 6.6 0 a3.3 3.3 0 1 0 -6.6 0zM1160.09 95.23L1158.23 95.23L1158.23 103.28L1160.09 103.28zM1155.86 103.28 a3.3 3.3 0 1 0 6.6 0 a3.3 3.3 0 1 0 -6.6 0zM1146.4 92.87L1144.68 92.16L1138.37 107.39L1140.09 108.1zM1135.93 107.74 a3.3 3.3 0 1 0 6.6 0 a3.3 3.3 0 1 0 -6.6 0zM1134.65 85.46L1133.34 84.14L1124.4 93.08L1125.72 94.4zM1121.76 93.74 a3.3 3.3 0 1 0 6.6 0 a3.3 3.3 0 1 0 -6.6 0zM1126.64 74.12L1125.93 72.4L1118.57 75.44L1119.28 77.17zM1115.63 76.3 a3.3 3.3 0 1 0 6.6 0 a3.3 3.3 0 1 0 -6.6 0zM1123.57 60.57L1123.57 58.71L1111.58 58.71L1111.58 60.57zM1108.28 59.64 a3.3 3.3 0 1 0 6.6 0 a3.3 3.3 0 1 0 -6.6 0zM1125.93 46.88L1126.64 45.16L1121.05 42.85L1120.34 44.57zM1117.39 43.71 a3.3 3.3 0 1 0 6.6 0 a3.3 3.3 0 1 0 -6.6 0zM1133.34 35.14L1134.65 33.82L1126.99 26.15L1125.67 27.47zM1123.03 26.81 a3.3 3.3 0 1 0 6.6 0 a3.3 3.3 0 1 0 -6.6 0zM1144.68 27.12L1146.4 26.41L1141.61 14.83L1139.88 15.54zM1137.45 15.19 a3.3 3.3 0 1 0 6.6 0 a3.3 3.3 0 1 0 -6.6 0zM1158.23 24.06L1160.09 24.06L1160.09 6.67L1158.23 6.67zM1155.86 6.67 a3.3 3.3 0 1 0 6.6 0 a3.3 3.3 0 1 0 -6.6 0zM1171.91 26.41L1173.64 27.12L1177.49 17.82L1175.77 17.1zM1173.33 17.46 a3.3 3.3 0 1 0 6.6 0 a3.3 3.3 0 1 0 -6.6 0zM1183.66 33.82L1184.98 35.14L1193.7 26.42L1192.38 25.1zM1189.74 25.76 a3.3 3.3 0 1 0 6.6 0 a3.3 3.3 0 1 0 -6.6 0zM1191.68 45.16L1192.39 46.88L1207.28 40.71L1206.57 38.99zM1203.63 39.85 a3.3 3.3 0 1 0 6.6 0 a3.3 3.3 0 1 0 -6.6 0zM1123.56 59.64 a35.6 35.6 0 1 0 71.2 0 a35.6 35.6 0 1 0 -71.2 0z" fill="#488fdb"></path><path d="M1123.56 59.4 A34.5968 34.5968 0 0 1 1177.1 28.9M1177.1 28.9 A71.1936 71.1936 0 0 0 1123.56 59.4" fill="#2672c3" fill-rule="nonzero"></path><path d="M1170.9 56.23 a7.12 7.12 0 1 0 14.24 0 a7.12 7.12 0 1 0 -14.24 0zM1123.85 60.96 a7.12 7.12 0 1 0 14.24 0 a7.12 7.12 0 1 0 -14.24 0zM1152.01 45.31 a7.12 7.12 0 1 0 14.24 0 a7.12 7.12 0 1 0 -14.24 0zM1188.96 46.4 a1.42 1.42 0 1 0 2.84 0 a1.42 1.42 0 1 0 -2.84 0zM1184.8 70.56 a2.49 2.49 0 1 0 4.98 0 a2.49 2.49 0 1 0 -4.98 0zM1146.18 82.96 a7.12 7.12 0 1 0 14.24 0 a7.12 7.12 0 1 0 -14.24 0zM1173.63 85.98 a3.56 3.56 0 1 0 7.12 0 a3.56 3.56 0 1 0 -7.12 0zM1177.63 40.05 a1.78 1.78 0 1 0 3.56 0 a1.78 1.78 0 1 0 -3.56 0zM1163.62 72.19 a1.78 1.78 0 1 0 3.56 0 a1.78 1.78 0 1 0 -3.56 0zM1130.69 80.32 a1.42 1.42 0 1 0 2.84 0 a1.42 1.42 0 1 0 -2.84 0z" fill="#2672c3" fill-rule="nonzero"></path><path d="M1408.26 197.13L1408.26 199.46L1415.98 199.46L1415.98 197.13zM1411.85 198.3 a4.13 4.13 0 1 0 8.26 0 a4.13 4.13 0 1 0 -8.26 0zM1405.32 214.24L1404.42 216.39L1421.77 223.58L1422.67 221.43zM1418.09 222.5 a4.13 4.13 0 1 0 8.26 0 a4.13 4.13 0 1 0 -8.26 0zM1396.05 228.92L1394.4 230.57L1404.08 240.25L1405.73 238.61zM1400.78 239.43 a4.13 4.13 0 1 0 8.26 0 a4.13 4.13 0 1 0 -8.26 0zM1381.87 238.94L1379.72 239.84L1384.55 251.5L1386.7 250.6zM1381.5 251.05 a4.13 4.13 0 1 0 8.26 0 a4.13 4.13 0 1 0 -8.26 0zM1364.94 242.78L1362.61 242.78L1362.61 252.56L1364.94 252.56zM1359.64 252.56 a4.13 4.13 0 1 0 8.26 0 a4.13 4.13 0 1 0 -8.26 0zM1347.83 239.84L1345.68 238.94L1342.97 245.49L1345.12 246.38zM1339.91 245.93 a4.13 4.13 0 1 0 8.26 0 a4.13 4.13 0 1 0 -8.26 0zM1333.15 230.57L1331.5 228.92L1319.11 241.31L1320.76 242.96zM1315.8 242.14 a4.13 4.13 0 1 0 8.26 0 a4.13 4.13 0 1 0 -8.26 0zM1323.13 216.39L1322.23 214.24L1305.12 221.33L1306.02 223.48zM1301.44 222.41 a4.13 4.13 0 1 0 8.26 0 a4.13 4.13 0 1 0 -8.26 0zM1319.29 199.46L1319.29 197.13L1308.57 197.13L1308.57 199.46zM1304.44 198.3 a4.13 4.13 0 1 0 8.26 0 a4.13 4.13 0 1 0 -8.26 0zM1322.23 182.35L1323.13 180.2L1308.53 174.15L1307.64 176.3zM1303.95 175.23 a4.13 4.13 0 1 0 8.26 0 a4.13 4.13 0 1 0 -8.26 0zM1331.5 167.67L1333.15 166.02L1326.19 159.06L1324.54 160.71zM1321.23 159.89 a4.13 4.13 0 1 0 8.26 0 a4.13 4.13 0 1 0 -8.26 0zM1345.68 157.65L1347.83 156.76L1343.45 146.18L1341.3 147.07zM1338.24 146.62 a4.13 4.13 0 1 0 8.26 0 a4.13 4.13 0 1 0 -8.26 0zM1362.61 153.82L1364.94 153.82L1364.94 139.41L1362.61 139.41zM1359.64 139.41 a4.13 4.13 0 1 0 8.26 0 a4.13 4.13 0 1 0 -8.26 0zM1379.72 156.76L1381.87 157.65L1389.06 140.29L1386.91 139.4zM1383.86 139.84 a4.13 4.13 0 1 0 8.26 0 a4.13 4.13 0 1 0 -8.26 0zM1394.4 166.02L1396.05 167.67L1407.02 156.7L1405.37 155.05zM1402.06 155.88 a4.13 4.13 0 1 0 8.26 0 a4.13 4.13 0 1 0 -8.26 0zM1404.42 180.2L1405.32 182.35L1414.64 178.49L1413.75 176.34zM1410.06 177.41 a4.13 4.13 0 1 0 8.26 0 a4.13 4.13 0 1 0 -8.26 0zM1319.27 198.3 a44.5 44.5 0 1 0 89 0 a44.5 44.5 0 1 0 -89 0z" fill="#488fdb"></path><path d="M1387.49 160.65 A43.496 43.496 0 0 1 1384.6 237.62M1384.6 237.62 A88.992 88.992 0 0 0 1387.49 160.65" fill="#2672c3" fill-rule="nonzero"></path><path d="M1380.68 224.4 a8.01 8.01 0 1 0 16.02 0 a8.01 8.01 0 1 0 -16.02 0zM1348.64 178.38 a8.9 8.9 0 1 0 17.8 0 a8.9 8.9 0 1 0 -17.8 0zM1368.25 197.31 a8.9 8.9 0 1 0 17.8 0 a8.9 8.9 0 1 0 -17.8 0zM1333.21 167.79 a4 4 0 1 0 8 0 a4 4 0 1 0 -8 0zM1347.72 210.82 a7.56 7.56 0 1 0 15.12 0 a7.56 7.56 0 1 0 -15.12 0zM1394.62 170.82 a1.78 1.78 0 1 0 3.56 0 a1.78 1.78 0 1 0 -3.56 0zM1352.85 238.19 a3.56 3.56 0 1 0 7.12 0 a3.56 3.56 0 1 0 -7.12 0zM1374.44 171.21 a4.45 4.45 0 1 0 8.9 0 a4.45 4.45 0 1 0 -8.9 0zM1320.63 189.68 a3.11 3.11 0 1 0 6.22 0 a3.11 3.11 0 1 0 -6.22 0zM1403.38 203.95 a2.22 2.22 0 1 0 4.44 0 a2.22 2.22 0 1 0 -4.44 0z" fill="#2672c3" fill-rule="nonzero"></path><path d="M963.28 469.84L963.28 471.7L968.58 471.7L968.58 469.84zM965.28 470.77 a3.3 3.3 0 1 0 6.6 0 a3.3 3.3 0 1 0 -6.6 0zM960.93 483.53L960.21 485.25L973.34 490.69L974.05 488.97zM970.4 489.83 a3.3 3.3 0 1 0 6.6 0 a3.3 3.3 0 1 0 -6.6 0zM953.51 495.27L952.2 496.59L956.23 500.63L957.55 499.31zM953.59 499.97 a3.3 3.3 0 1 0 6.6 0 a3.3 3.3 0 1 0 -6.6 0zM942.17 503.29L940.45 504L942.78 509.64L944.51 508.93zM940.35 509.28 a3.3 3.3 0 1 0 6.6 0 a3.3 3.3 0 1 0 -6.6 0zM928.63 506.36L926.76 506.36L926.76 515.28L928.63 515.28zM924.39 515.28 a3.3 3.3 0 1 0 6.6 0 a3.3 3.3 0 1 0 -6.6 0zM914.94 504L913.21 503.29L909.09 513.24L910.81 513.95zM906.65 513.6 a3.3 3.3 0 1 0 6.6 0 a3.3 3.3 0 1 0 -6.6 0zM903.19 496.59L901.87 495.27L897.14 500L898.46 501.32zM894.5 500.66 a3.3 3.3 0 1 0 6.6 0 a3.3 3.3 0 1 0 -6.6 0zM895.17 485.25L894.46 483.53L885.99 487.04L886.7 488.76zM883.05 487.9 a3.3 3.3 0 1 0 6.6 0 a3.3 3.3 0 1 0 -6.6 0zM892.11 471.7L892.11 469.84L879.54 469.84L879.54 471.7zM876.24 470.77 a3.3 3.3 0 1 0 6.6 0 a3.3 3.3 0 1 0 -6.6 0zM894.46 458.01L895.17 456.29L880.15 450.07L879.44 451.79zM876.5 450.93 a3.3 3.3 0 1 0 6.6 0 a3.3 3.3 0 1 0 -6.6 0zM901.87 446.27L903.19 444.95L891.54 433.3L890.22 434.61zM887.58 433.96 a3.3 3.3 0 1 0 6.6 0 a3.3 3.3 0 1 0 -6.6 0zM913.21 438.25L914.94 437.54L913.03 432.93L911.31 433.64zM908.87 433.28 a3.3 3.3 0 1 0 6.6 0 a3.3 3.3 0 1 0 -6.6 0zM926.76 435.19L928.63 435.19L928.63 420.58L926.76 420.58zM924.39 420.58 a3.3 3.3 0 1 0 6.6 0 a3.3 3.3 0 1 0 -6.6 0zM940.45 437.54L942.17 438.25L948.54 422.88L946.82 422.17zM944.38 422.52 a3.3 3.3 0 1 0 6.6 0 a3.3 3.3 0 1 0 -6.6 0zM952.2 444.95L953.51 446.27L960.82 438.96L959.5 437.65zM956.86 438.3 a3.3 3.3 0 1 0 6.6 0 a3.3 3.3 0 1 0 -6.6 0zM960.21 456.29L960.93 458.01L969.78 454.35L969.06 452.63zM966.12 453.49 a3.3 3.3 0 1 0 6.6 0 a3.3 3.3 0 1 0 -6.6 0zM892.09 470.77 a35.6 35.6 0 1 0 71.2 0 a35.6 35.6 0 1 0 -71.2 0z" fill="#488fdb"></path><path d="M902.26 495.68 A34.5968 34.5968 0 0 1 918.77 436.31M918.77 436.31 A71.1936 71.1936 0 0 0 902.26 495.68" fill="#2672c3" fill-rule="nonzero"></path><path d="M922.19 494.77 a7.12 7.12 0 1 0 14.24 0 a7.12 7.12 0 1 0 -14.24 0zM899.21 490.49 a4.27 4.27 0 1 0 8.54 0 a4.27 4.27 0 1 0 -8.54 0zM916.7 462.82 a7.12 7.12 0 1 0 14.24 0 a7.12 7.12 0 1 0 -14.24 0zM892.17 470.77 a5.7 5.7 0 1 0 11.4 0 a5.7 5.7 0 1 0 -11.4 0zM941.24 451.93 a7.12 7.12 0 1 0 14.24 0 a7.12 7.12 0 1 0 -14.24 0zM959.39 469.74 a1.78 1.78 0 1 0 3.56 0 a1.78 1.78 0 1 0 -3.56 0zM948.05 489.99 a4.27 4.27 0 1 0 8.54 0 a4.27 4.27 0 1 0 -8.54 0zM937.75 466.28 a1.78 1.78 0 1 0 3.56 0 a1.78 1.78 0 1 0 -3.56 0zM916.28 479.93 a3.2 3.2 0 1 0 6.4 0 a3.2 3.2 0 1 0 -6.4 0zM911.85 441.78 a3.92 3.92 0 1 0 7.84 0 a3.92 3.92 0 1 0 -7.84 0z" fill="#2672c3" fill-rule="nonzero"></path></g><defs><mask id="SvgjsMask1013"><rect width="1440" height="560" fill="#ffffff"></rect></mask><radialGradient cx="100%" cy="100%" r="1545.06" gradientUnits="userSpaceOnUse" id="SvgjsRadialGradient1014"><stop stop-color="#0e2a47" offset="0"></stop><stop stop-color="#00459e" offset="1"></stop></radialGradient></defs></svg>